# xmcd
#
# Track frame offsets:
#	150
#	9827
#	22184
#	34835
#	48312
#	59254
#	71412
#	83012
#	95399
#	109987
#	123712
#	135954
#	149161
#	162830
#	174712
#	186613
#	199918
#	215141
#	228310
#	240682
#	254171
#	266317
#	279824
#	293626
#	308076
#
# Disc length: 4288 seconds
#
# Revision: 1
# Processed by: cddbd v1.4PL0 Copyright (c) Steve Scherf et al.
# Submitted via: CDmax 2.0
#
DISCID=7510be19
DTITLE=Lightnin' Hopkins - Classic Sides 1946-1951, CD #4
DYEAR=2003
DGENRE=Blues
TTITLE0=Henny Penny Blues
TTITLE1=Loretta Blues
TTITLE2=Jackstropper Blues
TTITLE3=Grievance Blues
TTITLE4=Grosebeck Blues - (take 2)
TTITLE5=Whiskey Blues
TTITLE6=Racetrack Blues
TTITLE7=Good-Bye Blues
TTITLE8=Bluebird Blues
TTITLE9=Seems Funny Baby
TTITLE10=Coolin' Board Blues
TTITLE11=Goin' Back And Talk To Mama
TTITLE12=All I Got Is Gone
TTITLE13=Beggin' You To Stay
TTITLE14=Bad Luck And Trouble
TTITLE15=Black Cat Bone
TTITLE16=Disagreeable
TTITLE17=Dark And Cloudy
TTITLE18=Coffee Blues
TTITLE19=Praying Ground Blues
TTITLE20=Gotta Move
TTITLE21=Give Me Central 209
TTITLE22=Long Way From Texas
TTITLE23=Tell Me Boogie
TTITLE24=New Short Haired Woman
EXTD=
EXTT0=
EXTT1=
EXTT2=
EXTT3=
EXTT4=
EXTT5=
EXTT6=
EXTT7=
EXTT8=
EXTT9=
EXTT10=
EXTT11=
EXTT12=
EXTT13=
EXTT14=
EXTT15=
EXTT16=
EXTT17=
EXTT18=
EXTT19=
EXTT20=
EXTT21=
EXTT22=
EXTT23=
EXTT24=
PLAYORDER=
